<svg width="155" height="34" viewBox="0 0 155 34" fill="none" xmlns="http://www.w3.org/2000/svg">
<path d="M45.5972 22.6914C45.5972 23.4336 45.4448 24.0039 45.1401 24.4023C44.8433 24.8008 44.3472 25 43.6519 25C42.9956 25 42.5308 24.8008 42.2573 24.4023C41.9917 24.0039 41.8589 23.4336 41.8589 22.6914V10.3047C41.8589 9.5625 41.9917 8.99219 42.2573 8.59375C42.5308 8.19531 42.9956 7.99609 43.6519 7.99609C44.3472 7.99609 44.8433 8.19531 45.1401 8.59375C45.4448 8.99219 45.5972 9.5625 45.5972 10.3047V22.6914Z" fill="#0B0A2F"/>
<path d="M46.7319 19.0938C46.7319 18.2656 46.8647 17.4844 47.1304 16.75C47.4038 16.0078 47.81 15.3594 48.3491 14.8047C48.896 14.25 49.5757 13.8086 50.3882 13.4805C51.2085 13.1523 52.1694 12.9883 53.271 12.9883C54.3257 12.9883 55.2593 13.1406 56.0718 13.4453C56.8843 13.75 57.5679 14.1758 58.1225 14.7227C58.6772 15.2617 59.0991 15.9062 59.3882 16.6562C59.6772 17.3984 59.8218 18.2109 59.8218 19.0938C59.8218 19.9141 59.685 20.6914 59.4116 21.4258C59.1382 22.1523 58.728 22.793 58.1811 23.3477C57.6343 23.8945 56.9507 24.332 56.1304 24.6602C55.31 24.9805 54.3569 25.1406 53.271 25.1406C52.2007 25.1406 51.2554 24.9883 50.435 24.6836C49.6225 24.3711 48.939 23.9453 48.3843 23.4062C47.8374 22.8594 47.4233 22.2188 47.1421 21.4844C46.8686 20.7422 46.7319 19.9453 46.7319 19.0938ZM50.6343 19.0938C50.6343 19.6094 50.6811 20.1016 50.7749 20.5703C50.8686 21.0312 51.0171 21.4375 51.2202 21.7891C51.4311 22.1406 51.7046 22.4219 52.0405 22.6328C52.3765 22.8359 52.7866 22.9375 53.271 22.9375C53.7163 22.9375 54.103 22.8438 54.4311 22.6562C54.7671 22.4688 55.0405 22.207 55.2515 21.8711C55.4702 21.5352 55.6343 21.1328 55.7436 20.6641C55.853 20.1875 55.9077 19.6641 55.9077 19.0938C55.9077 18.5781 55.8569 18.0898 55.7554 17.6289C55.6616 17.1602 55.5093 16.75 55.2983 16.3984C55.0874 16.0391 54.814 15.7578 54.478 15.5547C54.1499 15.3438 53.7475 15.2383 53.271 15.2383C52.7944 15.2383 52.3882 15.3398 52.0522 15.543C51.7163 15.7461 51.4429 16.0234 51.2319 16.375C51.021 16.7266 50.8686 17.1367 50.7749 17.6055C50.6811 18.0742 50.6343 18.5703 50.6343 19.0938Z" fill="#0B0A2F"/>
<path d="M69.441 22.7383C69.23 23.1289 68.9722 23.4609 68.6675 23.7344C68.3707 24.0078 68.0386 24.2344 67.6715 24.4141C67.3121 24.5859 66.9254 24.7148 66.5113 24.8008C66.105 24.8789 65.6871 24.918 65.2574 24.918C64.5386 24.918 63.8824 24.7891 63.2886 24.5312C62.6949 24.2734 62.1832 23.9023 61.7535 23.418C61.3316 22.9258 61.0035 22.3242 60.7691 21.6133C60.5347 20.9023 60.4175 20.0898 60.4175 19.1758C60.4175 18.3164 60.5269 17.5117 60.7457 16.7617C60.9644 16.0117 61.2808 15.3594 61.6949 14.8047C62.1168 14.25 62.6324 13.8125 63.2418 13.4922C63.8511 13.1719 64.5465 13.0117 65.3277 13.0117C66.2183 13.0117 67.0074 13.1836 67.6949 13.5273C68.3902 13.8711 68.9879 14.4336 69.4879 15.2148V14.9102C69.4879 14.3477 69.6402 13.9258 69.9449 13.6445C70.2574 13.3555 70.6871 13.2109 71.234 13.2109C71.5621 13.2109 71.8394 13.2656 72.066 13.375C72.2925 13.4766 72.4722 13.6328 72.605 13.8438C72.7379 14.0469 72.8316 14.3008 72.8863 14.6055C72.9488 14.9023 72.98 15.2422 72.98 15.625V23.4766C72.98 24.4297 72.859 25.2812 72.6168 26.0312C72.3824 26.7812 72.0152 27.4141 71.5152 27.9297C71.0152 28.4453 70.3746 28.8359 69.5933 29.1016C68.8121 29.375 67.8824 29.5117 66.8043 29.5117C66.0465 29.5117 65.3746 29.4766 64.7886 29.4062C64.2105 29.3438 63.7105 29.2461 63.2886 29.1133C62.8668 28.9648 62.5465 28.8008 62.3277 28.6211C62.1168 28.4414 62.0113 28.207 62.0113 27.918C62.0113 27.7539 62.0347 27.5977 62.0816 27.4492C62.1285 27.3008 62.1988 27.168 62.2925 27.0508C62.3941 26.9414 62.523 26.8516 62.6793 26.7812C62.8433 26.7188 63.0425 26.6875 63.2769 26.6875C63.5269 26.6875 63.7769 26.7031 64.0269 26.7344C64.2847 26.7656 64.5504 26.7969 64.8238 26.8281C65.105 26.8672 65.398 26.9023 65.7027 26.9336C66.0152 26.9648 66.3511 26.9805 66.7105 26.9805C67.1402 26.9805 67.523 26.9375 67.859 26.8516C68.1949 26.7656 68.48 26.6133 68.7144 26.3945C68.9488 26.1758 69.1285 25.8828 69.2535 25.5156C69.3785 25.1562 69.441 24.6953 69.441 24.1328V22.7383ZM69.441 19.0938C69.441 18.5234 69.398 18.0039 69.3121 17.5352C69.234 17.0664 69.0972 16.668 68.9019 16.3398C68.7066 16.0039 68.4449 15.7461 68.1168 15.5664C67.7886 15.3789 67.3785 15.2852 66.8863 15.2852C66.4019 15.2852 65.9996 15.3828 65.6793 15.5781C65.3668 15.7734 65.1168 16.043 64.9293 16.3867C64.7418 16.7305 64.609 17.1328 64.5308 17.5938C64.4605 18.0547 64.4254 18.5469 64.4254 19.0703C64.4254 20.2656 64.6363 21.1641 65.0582 21.7656C65.48 22.3672 66.0933 22.668 66.898 22.668C67.273 22.6602 67.6129 22.5898 67.9175 22.457C68.23 22.3164 68.4996 22.1016 68.7261 21.8125C68.9527 21.5234 69.1285 21.1562 69.2535 20.7109C69.3785 20.2656 69.441 19.7266 69.441 19.0938Z" fill="#0B0A2F"/>
<path d="M74.0564 19.0938C74.0564 18.2656 74.1892 17.4844 74.4548 16.75C74.7283 16.0078 75.1345 15.3594 75.6736 14.8047C76.2205 14.25 76.9001 13.8086 77.7126 13.4805C78.533 13.1523 79.4939 12.9883 80.5955 12.9883C81.6501 12.9883 82.5837 13.1406 83.3962 13.4453C84.2087 13.75 84.8923 14.1758 85.447 14.7227C86.0017 15.2617 86.4236 15.9062 86.7126 16.6562C87.0017 17.3984 87.1462 18.2109 87.1462 19.0938C87.1462 19.9141 87.0095 20.6914 86.7361 21.4258C86.4626 22.1523 86.0525 22.793 85.5056 23.3477C84.9587 23.8945 84.2751 24.332 83.4548 24.6602C82.6345 24.9805 81.6814 25.1406 80.5955 25.1406C79.5251 25.1406 78.5798 24.9883 77.7595 24.6836C76.947 24.3711 76.2634 23.9453 75.7087 23.4062C75.1619 22.8594 74.7478 22.2188 74.4665 21.4844C74.1931 20.7422 74.0564 19.9453 74.0564 19.0938ZM77.9587 19.0938C77.9587 19.6094 78.0056 20.1016 78.0994 20.5703C78.1931 21.0312 78.3415 21.4375 78.5447 21.7891C78.7556 22.1406 79.029 22.4219 79.365 22.6328C79.7009 22.8359 80.1111 22.9375 80.5955 22.9375C81.0408 22.9375 81.4275 22.8438 81.7556 22.6562C82.0915 22.4688 82.365 22.207 82.5759 21.8711C82.7947 21.5352 82.9587 21.1328 83.0681 20.6641C83.1775 20.1875 83.2322 19.6641 83.2322 19.0938C83.2322 18.5781 83.1814 18.0898 83.0798 17.6289C82.9861 17.1602 82.8337 16.75 82.6228 16.3984C82.4119 16.0391 82.1384 15.7578 81.8025 15.5547C81.4744 15.3438 81.072 15.2383 80.5955 15.2383C80.1189 15.2383 79.7126 15.3398 79.3767 15.543C79.0408 15.7461 78.7673 16.0234 78.5564 16.375C78.3455 16.7266 78.1931 17.1367 78.0994 17.6055C78.0056 18.0742 77.9587 18.5703 77.9587 19.0938Z" fill="#0B0A2F"/>
<path d="M92.1716 9.03906C92.1716 9.29688 92.113 9.52734 91.9958 9.73047C91.8786 9.92578 91.7263 10.0898 91.5388 10.2227C91.3513 10.3555 91.1325 10.457 90.8825 10.5273C90.6404 10.5898 90.3904 10.6211 90.1325 10.6211C89.8591 10.6211 89.5974 10.5859 89.3474 10.5156C89.1052 10.4453 88.8904 10.3438 88.7029 10.2109C88.5154 10.0703 88.3669 9.90234 88.2575 9.70703C88.1482 9.51172 88.0935 9.28906 88.0935 9.03906C88.0935 8.8125 88.1443 8.60547 88.2458 8.41797C88.3552 8.22266 88.4997 8.05469 88.6794 7.91406C88.8591 7.77344 89.074 7.66406 89.324 7.58594C89.574 7.50781 89.8474 7.46875 90.1443 7.46875C90.4021 7.46875 90.6521 7.50391 90.8943 7.57422C91.1443 7.64453 91.363 7.74609 91.5505 7.87891C91.738 8.01172 91.8865 8.17578 91.9958 8.37109C92.113 8.56641 92.1716 8.78906 92.1716 9.03906ZM91.9958 22.6914C91.9958 23.4336 91.8435 24.0039 91.5388 24.4023C91.2419 24.8008 90.7458 25 90.0505 25C89.3943 25 88.9294 24.8008 88.656 24.4023C88.3904 24.0039 88.2575 23.4336 88.2575 22.6914V15.5195C88.2575 14.7773 88.3904 14.207 88.656 13.8086C88.9294 13.4102 89.3943 13.2109 90.0505 13.2109C90.7458 13.2109 91.2419 13.4102 91.5388 13.8086C91.8435 14.207 91.9958 14.7773 91.9958 15.5195V22.6914Z" fill="#0B0A2F"/>
<path d="M97.3848 19.0703C97.3848 19.5938 97.4238 20.082 97.502 20.5352C97.5879 20.9883 97.7285 21.3867 97.9238 21.7305C98.127 22.0664 98.3926 22.332 98.7207 22.5273C99.0566 22.7227 99.4707 22.8203 99.9629 22.8203C100.416 22.8203 100.795 22.7266 101.1 22.5391C101.412 22.3438 101.662 22.0781 101.85 21.7422C102.037 21.3984 102.17 20.9961 102.248 20.5352C102.334 20.0742 102.377 19.5742 102.377 19.0352C102.377 18.6055 102.346 18.168 102.283 17.7227C102.221 17.2695 102.104 16.8594 101.932 16.4922C101.76 16.125 101.522 15.8242 101.217 15.5898C100.912 15.3555 100.514 15.2383 100.021 15.2383C99.5293 15.2383 99.1113 15.3164 98.7676 15.4727C98.4316 15.6289 98.1582 15.8672 97.9473 16.1875C97.7441 16.5078 97.5996 16.9102 97.5137 17.3945C97.4277 17.8711 97.3848 18.4297 97.3848 19.0703ZM97.3731 15.5195C97.5684 15.1055 97.8184 14.7422 98.1231 14.4297C98.4277 14.1172 98.7637 13.8555 99.1309 13.6445C99.4981 13.4336 99.8809 13.2773 100.279 13.1758C100.686 13.0664 101.088 13.0117 101.486 13.0117C102.205 13.0117 102.854 13.1719 103.432 13.4922C104.01 13.8125 104.502 14.25 104.908 14.8047C105.322 15.3516 105.639 16 105.858 16.75C106.076 17.4922 106.186 18.2891 106.186 19.1406C106.186 20.0234 106.068 20.832 105.834 21.5664C105.608 22.3008 105.283 22.9336 104.861 23.4648C104.447 23.9883 103.947 24.3984 103.361 24.6953C102.783 24.9922 102.139 25.1406 101.428 25.1406C100.553 25.1406 99.7715 24.9375 99.084 24.5312C98.3965 24.125 97.8262 23.5547 97.3731 22.8203V27.0391C97.3731 27.7812 97.2207 28.3516 96.916 28.75C96.6191 29.1484 96.1231 29.3477 95.4277 29.3477C94.7715 29.3477 94.3066 29.1484 94.0332 28.75C93.7676 28.3516 93.6348 27.7812 93.6348 27.0391V15.5195C93.6348 14.7773 93.7676 14.207 94.0332 13.8086C94.3066 13.4102 94.7715 13.2109 95.4277 13.2109C96.1231 13.2109 96.6191 13.4102 96.916 13.8086C97.2207 14.207 97.3731 14.7773 97.3731 15.5195Z" fill="#0B0A2F"/>
<path d="M110.309 16.3516C110.309 16.6562 110.442 16.8945 110.707 17.0664C110.973 17.2305 111.34 17.3672 111.809 17.4766C112.254 17.5781 112.711 17.6758 113.18 17.7695C113.649 17.8633 114.106 17.9727 114.551 18.0977C114.996 18.2148 115.414 18.3555 115.805 18.5195C116.195 18.6836 116.539 18.8906 116.836 19.1406C117.133 19.3828 117.367 19.6797 117.539 20.0312C117.711 20.375 117.797 20.7891 117.797 21.2734C117.797 21.8828 117.672 22.4258 117.422 22.9023C117.172 23.3711 116.817 23.7695 116.356 24.0977C115.903 24.4258 115.36 24.6797 114.727 24.8594C114.094 25.0391 113.395 25.1328 112.629 25.1406C111.903 25.1406 111.203 25.0938 110.531 25C109.86 24.9141 109.262 24.7773 108.738 24.5898C108.223 24.4023 107.809 24.1719 107.496 23.8984C107.184 23.6172 107.028 23.2891 107.028 22.9141C107.028 22.5859 107.133 22.332 107.344 22.1523C107.555 21.9727 107.824 21.8828 108.153 21.8828C108.278 21.8828 108.426 21.9062 108.598 21.9531C108.77 22 108.957 22.0586 109.16 22.1289C109.363 22.1992 109.578 22.2773 109.805 22.3633C110.039 22.4414 110.281 22.5117 110.531 22.5742C110.844 22.6602 111.164 22.7305 111.492 22.7852C111.828 22.832 112.172 22.8555 112.524 22.8555C112.742 22.8555 112.957 22.8359 113.168 22.7969C113.379 22.75 113.567 22.6836 113.731 22.5977C113.903 22.5039 114.043 22.3867 114.153 22.2461C114.262 22.1055 114.328 21.9336 114.352 21.7305C114.375 21.6836 114.395 21.6367 114.41 21.5898C114.426 21.543 114.434 21.4883 114.434 21.4258C114.434 21.207 114.332 21.0117 114.129 20.8398C113.934 20.668 113.656 20.5312 113.297 20.4297C112.695 20.2891 112.121 20.1602 111.574 20.043C111.028 19.9258 110.52 19.8008 110.051 19.668C109.59 19.5352 109.168 19.3828 108.785 19.2109C108.41 19.0391 108.09 18.8281 107.824 18.5781C107.567 18.3281 107.363 18.0273 107.215 17.6758C107.074 17.3242 107.004 16.8984 107.004 16.3984C107.004 15.8594 107.125 15.3789 107.367 14.957C107.617 14.5273 107.973 14.168 108.434 13.8789C108.895 13.5898 109.453 13.3711 110.11 13.2227C110.766 13.0664 111.508 12.9883 112.336 12.9883C113.82 12.9883 114.949 13.168 115.723 13.5273C116.504 13.8789 116.895 14.3398 116.895 14.9102C116.895 15.2305 116.789 15.4766 116.578 15.6484C116.367 15.8125 116.113 15.8945 115.817 15.8945C115.66 15.8945 115.496 15.8672 115.324 15.8125C115.16 15.75 114.961 15.6836 114.727 15.6133C114.492 15.5352 114.211 15.4688 113.883 15.4141C113.563 15.3516 113.164 15.3203 112.688 15.3203C112.328 15.3203 112 15.3359 111.703 15.3672C111.414 15.3984 111.164 15.4531 110.953 15.5312C110.75 15.6094 110.59 15.7148 110.473 15.8477C110.363 15.9805 110.309 16.1484 110.309 16.3516Z" fill="#0B0A2F"/>
<path d="M122.553 20.6523C122.553 21.0195 122.6 21.3398 122.694 21.6133C122.795 21.8867 122.932 22.1172 123.104 22.3047C123.276 22.4844 123.475 22.6211 123.701 22.7148C123.936 22.8008 124.186 22.8438 124.451 22.8438C124.764 22.8438 125.065 22.7969 125.354 22.7031C125.643 22.6094 125.897 22.4648 126.116 22.2695C126.342 22.0742 126.522 21.8281 126.655 21.5312C126.787 21.2344 126.854 20.8867 126.854 20.4883V15.5195C126.854 14.7773 126.987 14.207 127.252 13.8086C127.526 13.4102 127.991 13.2109 128.647 13.2109C129.342 13.2109 129.838 13.4102 130.135 13.8086C130.44 14.207 130.592 14.7773 130.592 15.5195V22.6914C130.592 23.4336 130.44 24.0039 130.135 24.4023C129.838 24.8008 129.342 25 128.647 25C127.991 25 127.526 24.8008 127.252 24.4023C126.987 24.0039 126.854 23.4336 126.854 22.6914C126.69 23.0508 126.475 23.3789 126.209 23.6758C125.951 23.9727 125.647 24.2305 125.295 24.4492C124.951 24.6602 124.569 24.8242 124.147 24.9414C123.733 25.0586 123.283 25.1172 122.799 25.1172C122.276 25.1172 121.772 25.0273 121.287 24.8477C120.811 24.6602 120.389 24.3867 120.022 24.0273C119.655 23.6602 119.362 23.207 119.143 22.668C118.924 22.1289 118.815 21.5 118.815 20.7812V15.5195C118.815 14.7773 118.948 14.207 119.213 13.8086C119.487 13.4102 119.951 13.2109 120.608 13.2109C121.303 13.2109 121.799 13.4102 122.096 13.8086C122.401 14.207 122.553 14.7773 122.553 15.5195V20.6523Z" fill="#0B0A2F"/>
<path d="M132.289 15.5195C132.289 14.7773 132.422 14.207 132.688 13.8086C132.961 13.4102 133.426 13.2109 134.082 13.2109C134.778 13.2109 135.274 13.4102 135.571 13.8086C135.875 14.207 136.028 14.7773 136.028 15.5195C136.184 15.1445 136.395 14.8047 136.661 14.5C136.934 14.1875 137.243 13.9219 137.586 13.7031C137.938 13.4844 138.317 13.3164 138.723 13.1992C139.129 13.0742 139.551 13.0117 139.989 13.0117C140.395 13.0117 140.793 13.0664 141.184 13.1758C141.582 13.2773 141.95 13.4453 142.286 13.6797C142.629 13.9062 142.93 14.1953 143.188 14.5469C143.446 14.8984 143.645 15.3203 143.786 15.8125C144.028 15.2891 144.313 14.8477 144.641 14.4883C144.969 14.1289 145.325 13.8398 145.707 13.6211C146.09 13.4023 146.489 13.2461 146.903 13.1523C147.325 13.0586 147.746 13.0117 148.168 13.0117C148.668 13.0117 149.145 13.1016 149.598 13.2812C150.059 13.4609 150.461 13.7344 150.805 14.1016C151.157 14.4609 151.434 14.918 151.637 15.4727C151.848 16.0195 151.953 16.6602 151.953 17.3945V22.6914C151.953 23.4336 151.801 24.0039 151.496 24.4023C151.2 24.8008 150.703 25 150.008 25C149.352 25 148.887 24.8008 148.614 24.4023C148.348 24.0039 148.215 23.4336 148.215 22.6914V17.5586C148.215 17.207 148.168 16.8945 148.075 16.6211C147.981 16.3398 147.848 16.1055 147.676 15.918C147.512 15.7227 147.317 15.5781 147.09 15.4844C146.864 15.3828 146.621 15.332 146.364 15.332C146.043 15.332 145.739 15.3828 145.45 15.4844C145.161 15.5859 144.907 15.7422 144.688 15.9531C144.477 16.1641 144.305 16.4336 144.172 16.7617C144.047 17.0898 143.985 17.4844 143.985 17.9453V22.6914C143.985 23.4336 143.832 24.0039 143.528 24.4023C143.231 24.8008 142.735 25 142.039 25C141.383 25 140.918 24.8008 140.645 24.4023C140.379 24.0039 140.246 23.4336 140.246 22.6914V17.7812C140.246 16.9766 140.078 16.3672 139.743 15.9531C139.414 15.5391 138.965 15.332 138.395 15.332C138.059 15.332 137.746 15.3867 137.457 15.4961C137.168 15.6055 136.918 15.7656 136.707 15.9766C136.496 16.1875 136.328 16.4492 136.203 16.7617C136.086 17.0742 136.028 17.4336 136.028 17.8398V22.6914C136.028 23.4336 135.875 24.0039 135.571 24.4023C135.274 24.8008 134.778 25 134.082 25C133.426 25 132.961 24.8008 132.688 24.4023C132.422 24.0039 132.289 23.4336 132.289 22.6914V15.5195Z" fill="#0B0A2F"/>
<path d="M17.4878 23C14.1741 23 11.4878 20.3137 11.4878 17C11.4878 13.6863 14.1741 11 17.4878 11C20.8015 11 23.4878 13.6863 23.4878 17C23.4878 20.3137 20.8015 23 17.4878 23Z" fill="#0B0A2F"/>
<path d="M5.86408 19.0496C4.12533 19.3562 2.93351 21.0358 3.60096 22.6704C4.5328 24.9524 6.01943 26.9856 7.94674 28.5744C10.7027 30.8461 14.1787 32.06 17.7497 31.9977C21.3207 31.9354 24.7523 30.6009 27.4273 28.2343C29.2979 26.5793 30.7127 24.4954 31.5644 22.1823C32.1744 20.5254 30.9246 18.8884 29.1762 18.6427C27.4279 18.397 25.8581 19.6696 24.9945 21.2096C24.5264 22.0443 23.9187 22.8016 23.1907 23.4457C21.6559 24.8036 19.687 25.5692 17.6382 25.605C15.5893 25.6407 13.5949 24.9443 12.0137 23.6408C11.2636 23.0225 10.6299 22.2869 10.1329 21.469C9.21608 19.9601 7.60283 18.743 5.86408 19.0496Z" fill="#0B0A2F"/>
<path d="M32.3718 18.8745C32.4484 18.2604 32.4878 17.6348 32.4878 17C32.4878 8.71573 25.7721 2 17.4878 2C9.20352 2 2.48779 8.71573 2.48779 17C2.48779 17.8147 2.55274 18.6142 2.67775 19.3937C3.36673 18.4505 4.44205 17.7772 5.60355 17.5724C6.86024 17.3508 8.00237 17.6556 8.96806 18.2253C8.91101 17.8251 8.88149 17.416 8.88149 17C8.88149 12.2469 12.7347 8.3937 17.4878 8.3937C22.2409 8.3937 26.0941 12.2469 26.0941 17C26.0941 17.3134 26.0773 17.6229 26.0447 17.9276C26.99 17.3243 28.121 16.9796 29.3849 17.1573C30.5525 17.3214 31.6503 17.9564 32.3718 18.8745Z" fill="#0B0A2F"/>
</svg>
