<svg width="139" height="34" viewBox="0 0 139 34" fill="none" xmlns="http://www.w3.org/2000/svg">
<g clip-path="url(#clip0_8_62)">
<path d="M40.3279 23.8776H50.2393V20.8923H43.8506V9.6474H40.3279V23.8776Z" fill="#0B0A2F"/>
<path d="M56.1116 21.8874C54.6985 21.8874 53.9621 20.6534 53.9621 18.8025C53.9621 16.9516 54.6985 15.6977 56.1116 15.6977C57.5247 15.6977 58.281 16.9516 58.281 18.8025C58.281 20.6534 57.5247 21.8874 56.1116 21.8874ZM56.1315 24.1961C59.4154 24.1961 61.5649 21.8675 61.5649 18.8025C61.5649 15.7375 59.4154 13.4089 56.1315 13.4089C52.8675 13.4089 50.6782 15.7375 50.6782 18.8025C50.6782 21.8675 52.8675 24.1961 56.1315 24.1961Z" fill="#0B0A2F"/>
<path d="M67.249 27.4004C68.7616 27.4004 70.095 27.062 70.9906 26.2659C71.8066 25.5295 72.344 24.415 72.344 22.8825V13.6876H69.2392V14.7822H69.1994C68.6023 13.9264 67.6868 13.389 66.3335 13.389C63.8059 13.389 62.0544 15.4987 62.0544 18.4841C62.0544 21.6087 64.184 23.3204 66.4728 23.3204C67.7067 23.3204 68.4829 22.8228 69.08 22.1461H69.1596V23.1611C69.1596 24.3951 68.5824 25.1116 67.2092 25.1116C66.1344 25.1116 65.5971 24.6538 65.418 24.1165H62.2734C62.5918 26.246 64.4427 27.4004 67.249 27.4004ZM67.2291 20.9122C66.015 20.9122 65.2189 19.917 65.2189 18.3846C65.2189 16.8322 66.015 15.837 67.2291 15.837C68.5824 15.837 69.2989 16.9914 69.2989 18.3646C69.2989 19.7976 68.6421 20.9122 67.2291 20.9122Z" fill="#0B0A2F"/>
<path d="M78.728 21.8874C77.315 21.8874 76.5786 20.6534 76.5786 18.8025C76.5786 16.9516 77.315 15.6977 78.728 15.6977C80.1411 15.6977 80.8974 16.9516 80.8974 18.8025C80.8974 20.6534 80.1411 21.8874 78.728 21.8874ZM78.7479 24.1961C82.0319 24.1961 84.1816 21.8675 84.1816 18.8025C84.1816 15.7375 82.0319 13.4089 78.7479 13.4089C75.4839 13.4089 73.2947 15.7375 73.2947 18.8025C73.2947 21.8675 75.4839 24.1961 78.7479 24.1961Z" fill="#0B0A2F"/>
<path d="M85.1284 23.8776H88.3725V13.6876H85.1284V23.8776ZM85.1284 12.2745H88.3725V9.6474H85.1284V12.2745Z" fill="#0B0A2F"/>
<path d="M89.7798 27.2411H93.0239V22.8228H93.0637C93.7006 23.6786 94.636 24.1961 95.9495 24.1961C98.6165 24.1961 100.388 22.0864 100.388 18.7826C100.388 15.7176 98.7359 13.389 96.0292 13.389C94.636 13.389 93.6409 14.006 92.9443 14.9215H92.8846V13.6876H89.7798V27.2411ZM95.1136 21.6884C93.7205 21.6884 92.9244 20.5539 92.9244 18.902C92.9244 17.2501 93.6409 15.9963 95.0539 15.9963C96.4471 15.9963 97.1039 17.1506 97.1039 18.902C97.1039 20.6335 96.3476 21.6884 95.1136 21.6884Z" fill="#0B0A2F"/>
<path d="M105.67 24.1961C108.337 24.1961 110.308 23.0417 110.308 20.8126C110.308 18.2054 108.198 17.7477 106.407 17.4491C105.113 17.2103 103.959 17.1108 103.959 16.3943C103.959 15.7574 104.576 15.4589 105.372 15.4589C106.267 15.4589 106.884 15.7375 107.004 16.653H109.989C109.83 14.6429 108.278 13.389 105.392 13.389C102.983 13.389 100.993 14.5036 100.993 16.653C100.993 19.0413 102.884 19.519 104.655 19.8175C106.009 20.0564 107.243 20.1559 107.243 21.0714C107.243 21.7282 106.626 22.0864 105.65 22.0864C104.576 22.0864 103.899 21.5888 103.78 20.5738H100.715C100.814 22.8228 102.685 24.1961 105.67 24.1961Z" fill="#0B0A2F"/>
<path d="M114.714 24.1761C116.127 24.1761 117.022 23.6189 117.759 22.6238H117.818V23.8776H120.923V13.6876H117.679V19.3797C117.679 20.5937 117.002 21.4296 115.888 21.4296C114.853 21.4296 114.355 20.8126 114.355 19.6981V13.6876H111.131V20.3748C111.131 22.6437 112.365 24.1761 114.714 24.1761Z" fill="#0B0A2F"/>
<path d="M122.334 23.8776H125.579V18.1656C125.579 16.9516 126.176 16.0958 127.191 16.0958C128.166 16.0958 128.624 16.7326 128.624 17.8273V23.8776H131.868V18.1656C131.868 16.9516 132.445 16.0958 133.48 16.0958C134.455 16.0958 134.913 16.7326 134.913 17.8273V23.8776H138.157V17.2501C138.157 14.9613 137.003 13.389 134.694 13.389C133.38 13.389 132.286 13.9463 131.49 15.1803H131.45C130.932 14.0856 129.917 13.389 128.584 13.389C127.111 13.389 126.136 14.0856 125.499 15.1405H125.439V13.6876H122.334V23.8776Z" fill="#0B0A2F"/>
<path fill-rule="evenodd" clip-rule="evenodd" d="M7.17674 3.22706C5.99033 4.05663 4.91751 5.03745 3.9862 6.14155C7.79196 5.78823 12.627 6.36516 18.2405 9.17193C24.235 12.1691 29.062 12.2704 32.4213 11.6224C32.1165 10.6995 31.7327 9.81254 31.2782 8.96934C27.4326 9.37494 22.5026 8.83807 16.7571 5.9654C13.1087 4.14118 9.89261 3.38972 7.17674 3.22706ZM29.0318 5.77191C25.9949 2.37883 21.5816 0.243469 16.6696 0.243469C15.227 0.243469 13.8274 0.427656 12.4931 0.77377C14.3003 1.26686 16.22 1.98824 18.2405 2.99852C22.4471 5.10176 26.0788 5.77896 29.0318 5.77191ZM33.1396 14.8619C29.0811 15.6633 23.4769 15.4987 16.7571 12.1388C10.4749 8.9977 5.47483 9.03726 2.10258 9.78667C1.92852 9.82531 1.75855 9.86595 1.59269 9.90824C1.15118 10.8684 0.798754 11.8782 0.545884 12.9267C0.815963 12.8545 1.09505 12.786 1.383 12.7219C5.47412 11.8128 11.2545 11.8523 18.2405 15.3453C24.5228 18.4864 29.5229 18.4469 32.8952 17.6975C33.0107 17.6718 33.1246 17.6453 33.2365 17.6179C33.2488 17.3565 33.2549 17.0933 33.2549 16.8288C33.2549 16.1633 33.2158 15.507 33.1396 14.8619ZM32.695 21.118C28.676 21.8207 23.2349 21.551 16.7571 18.3122C10.4749 15.1711 5.47483 15.2107 2.10258 15.9601C1.35405 16.1263 0.680671 16.3289 0.0866583 16.5428C0.0850387 16.6379 0.0842285 16.7333 0.0842285 16.8288C0.0842285 25.9887 7.50974 33.4142 16.6696 33.4142C24.3462 33.4142 30.8047 28.1988 32.695 21.118Z" fill="#0B0A2F"/>
</g>
<defs>
<clipPath id="clip0_8_62">
<rect width="138.488" height="34" fill="white"/>
</clipPath>
</defs>
</svg>
