<svg width="142" height="34" viewBox="0 0 142 34" fill="none" xmlns="http://www.w3.org/2000/svg">
<g clip-path="url(#clip0_8_86)">
<path d="M43.0105 24.3168H52.9219V21.3314H46.5332V10.0865H43.0105V24.3168Z" fill="#0B0A2F"/>
<path d="M58.7942 22.3266C57.3811 22.3266 56.6447 21.0926 56.6447 19.2417C56.6447 17.3908 57.3811 16.1369 58.7942 16.1369C60.2073 16.1369 60.9636 17.3908 60.9636 19.2417C60.9636 21.0926 60.2073 22.3266 58.7942 22.3266ZM58.8141 24.6353C62.098 24.6353 64.2475 22.3067 64.2475 19.2417C64.2475 16.1767 62.098 13.8481 58.8141 13.8481C55.5501 13.8481 53.3608 16.1767 53.3608 19.2417C53.3608 22.3067 55.5501 24.6353 58.8141 24.6353Z" fill="#0B0A2F"/>
<path d="M69.9316 27.8395C71.4442 27.8395 72.7776 27.5012 73.6733 26.7051C74.4893 25.9687 75.0266 24.8541 75.0266 23.3216V14.1267H71.9218V15.2214H71.882C71.285 14.3656 70.3695 13.8282 69.0161 13.8282C66.4885 13.8282 64.7371 15.9378 64.7371 18.9232C64.7371 22.0479 66.8666 23.7595 69.1554 23.7595C70.3894 23.7595 71.1655 23.2619 71.7626 22.5853H71.8422V23.6003C71.8422 24.8342 71.2651 25.5507 69.8918 25.5507C68.8171 25.5507 68.2797 25.093 68.1006 24.5556H64.956C65.2744 26.6852 67.1254 27.8395 69.9316 27.8395ZM69.9117 21.3513C68.6977 21.3513 67.9015 20.3562 67.9015 18.8237C67.9015 17.2713 68.6977 16.2762 69.9117 16.2762C71.2651 16.2762 71.9815 17.4305 71.9815 18.8038C71.9815 20.2368 71.3248 21.3513 69.9117 21.3513Z" fill="#0B0A2F"/>
<path d="M81.4107 22.3266C79.9976 22.3266 79.2612 21.0926 79.2612 19.2417C79.2612 17.3908 79.9976 16.1369 81.4107 16.1369C82.8237 16.1369 83.5797 17.3908 83.5797 19.2417C83.5797 21.0926 82.8237 22.3266 81.4107 22.3266ZM81.4306 24.6353C84.7141 24.6353 86.8636 22.3067 86.8636 19.2417C86.8636 16.1767 84.7141 13.8481 81.4306 13.8481C78.1666 13.8481 75.9773 16.1767 75.9773 19.2417C75.9773 22.3067 78.1666 24.6353 81.4306 24.6353Z" fill="#0B0A2F"/>
<path d="M87.8115 24.3168H91.0556V14.1267H87.8115V24.3168ZM87.8115 12.7137H91.0556V10.0865H87.8115V12.7137Z" fill="#0B0A2F"/>
<path d="M92.4629 27.6803H95.707V23.2619H95.7468C96.3837 24.1177 97.3191 24.6352 98.6326 24.6352C101.3 24.6352 103.071 22.5256 103.071 19.2217C103.071 16.1568 101.419 13.8282 98.7123 13.8282C97.3191 13.8282 96.324 14.4452 95.6274 15.3607H95.5677V14.1267H92.4629V27.6803ZM97.7967 22.1275C96.4036 22.1275 95.6075 20.9931 95.6075 19.3412C95.6075 17.6893 96.324 16.4354 97.737 16.4354C99.1302 16.4354 99.787 17.5897 99.787 19.3412C99.787 21.0727 99.0307 22.1275 97.7967 22.1275Z" fill="#0B0A2F"/>
<path d="M108.352 24.6352C111.019 24.6352 112.99 23.4809 112.99 21.2518C112.99 18.6446 110.88 18.1868 109.089 17.8883C107.795 17.6495 106.641 17.5499 106.641 16.8335C106.641 16.1966 107.258 15.898 108.054 15.898C108.95 15.898 109.566 16.1767 109.686 17.0922H112.671C112.512 15.082 110.96 13.8282 108.074 13.8282C105.666 13.8282 103.675 14.9427 103.675 17.0922C103.675 19.4805 105.566 19.9581 107.337 20.2567C108.691 20.4955 109.925 20.595 109.925 21.5105C109.925 22.1673 109.308 22.5256 108.333 22.5256C107.258 22.5256 106.581 22.028 106.462 21.013H103.397C103.496 23.2619 105.367 24.6352 108.352 24.6352Z" fill="#0B0A2F"/>
<path d="M117.396 24.6154C118.809 24.6154 119.705 24.0581 120.441 23.063H120.501V24.3168H123.606V14.1268H120.362V19.8189C120.362 21.0329 119.685 21.8688 118.571 21.8688C117.536 21.8688 117.038 21.2518 117.038 20.1373V14.1268H113.814V20.814C113.814 23.0829 115.048 24.6154 117.396 24.6154Z" fill="#0B0A2F"/>
<path d="M125.017 24.3168H128.261V18.6048C128.261 17.3907 128.859 16.5349 129.874 16.5349C130.849 16.5349 131.307 17.1718 131.307 18.2664V24.3168H134.551V18.6048C134.551 17.3907 135.128 16.5349 136.163 16.5349C137.138 16.5349 137.596 17.1718 137.596 18.2664V24.3168H140.84V17.6893C140.84 15.4005 139.685 13.8282 137.377 13.8282C136.063 13.8282 134.969 14.3855 134.172 15.6194H134.133C133.615 14.5248 132.6 13.8282 131.267 13.8282C129.794 13.8282 128.819 14.5248 128.182 15.5796H128.122V14.1267H125.017V24.3168Z" fill="#0B0A2F"/>
<path fill-rule="evenodd" clip-rule="evenodd" d="M17.1574 33.4388C26.3173 33.4388 33.7427 26.0132 33.7427 16.8534C33.7427 7.69358 26.3173 0.268066 17.1574 0.268066C7.99753 0.268066 0.572021 7.69358 0.572021 16.8534C0.572021 26.0132 7.99753 33.4388 17.1574 33.4388ZM19.7173 13.0824C21.131 11.6686 21.131 9.37638 19.7173 7.96256C18.3035 6.54876 16.0113 6.54876 14.5975 7.96256C13.1838 9.37638 13.1838 11.6686 14.5975 13.0824L17.1574 15.6423L19.7173 13.0824ZM20.9285 19.4133C22.3423 20.8272 24.6345 20.8272 26.0483 19.4133C27.462 17.9995 27.462 15.7073 26.0483 14.2935C24.6345 12.8798 22.3423 12.8798 20.9285 14.2935L18.3686 16.8535L20.9285 19.4133ZM19.7173 25.7443C21.131 24.3305 21.131 22.0383 19.7173 20.6245L17.1574 18.0646L14.5975 20.6245C13.1838 22.0383 13.1838 24.3305 14.5975 25.7443C16.0113 27.1581 18.3035 27.1581 19.7173 25.7443ZM8.2665 19.4133C6.85273 17.9995 6.85273 15.7073 8.2665 14.2935C9.68034 12.8798 11.9725 12.8798 13.3863 14.2935L15.9462 16.8535L13.3863 19.4133C11.9725 20.8272 9.68034 20.8272 8.2665 19.4133Z" fill="#0B0A2F"/>
</g>
<defs>
<clipPath id="clip0_8_86">
<rect width="140.976" height="34" fill="white" transform="translate(0.487793)"/>
</clipPath>
</defs>
</svg>
