<svg width="113" height="34" viewBox="0 0 113 34" fill="none" xmlns="http://www.w3.org/2000/svg">
<g clip-path="url(#clip0_8_97)">
<path d="M43.4692 23.3339H53.3807V20.3486H46.992V9.1037H43.4692V23.3339Z" fill="#0B0A2F"/>
<path d="M59.2529 21.3437C57.8399 21.3437 57.1035 20.1098 57.1035 18.2589C57.1035 16.4079 57.8399 15.1541 59.2529 15.1541C60.666 15.1541 61.4223 16.4079 61.4223 18.2589C61.4223 20.1098 60.666 21.3437 59.2529 21.3437ZM59.2728 23.6524C62.5567 23.6524 64.7062 21.3238 64.7062 18.2589C64.7062 15.1939 62.5567 12.8653 59.2728 12.8653C56.0088 12.8653 53.8196 15.1939 53.8196 18.2589C53.8196 21.3238 56.0088 23.6524 59.2728 23.6524Z" fill="#0B0A2F"/>
<path d="M70.3903 26.8567C71.9029 26.8567 73.2364 26.5183 74.132 25.7222C74.948 24.9858 75.4854 23.8713 75.4854 22.3388V13.1439H72.3806V14.2385H72.3408C71.7437 13.3827 70.8282 12.8453 69.4748 12.8453C66.9472 12.8453 65.1958 14.955 65.1958 17.9404C65.1958 21.065 67.3254 22.7767 69.6141 22.7767C70.8481 22.7767 71.6243 22.2791 72.2214 21.6024H72.301V22.6174C72.301 23.8514 71.7238 24.5679 70.3505 24.5679C69.2758 24.5679 68.7384 24.1101 68.5593 23.5728H65.4147C65.7332 25.7023 67.5841 26.8567 70.3903 26.8567ZM70.3704 20.3685C69.1564 20.3685 68.3603 19.3733 68.3603 17.8408C68.3603 16.2885 69.1564 15.2933 70.3704 15.2933C71.7238 15.2933 72.4403 16.4477 72.4403 17.8209C72.4403 19.2539 71.7835 20.3685 70.3704 20.3685Z" fill="#0B0A2F"/>
<path d="M81.8694 21.3437C80.4563 21.3437 79.7199 20.1098 79.7199 18.2589C79.7199 16.4079 80.4563 15.1541 81.8694 15.1541C83.2825 15.1541 84.0388 16.4079 84.0388 18.2589C84.0388 20.1098 83.2825 21.3437 81.8694 21.3437ZM81.8893 23.6524C85.1732 23.6524 87.3227 21.3238 87.3227 18.2589C87.3227 15.1939 85.1732 12.8653 81.8893 12.8653C78.6253 12.8653 76.436 15.1939 76.436 18.2589C76.436 21.3238 78.6253 23.6524 81.8893 23.6524Z" fill="#0B0A2F"/>
<path d="M88.2695 23.3339H91.5136V13.1439H88.2695V23.3339ZM88.2695 11.7308H91.5136V9.1037H88.2695V11.7308Z" fill="#0B0A2F"/>
<path d="M92.9219 26.6974H96.166V22.2791H96.2058C96.8427 23.1349 97.7781 23.6524 99.0916 23.6524C101.759 23.6524 103.53 21.5427 103.53 18.2389C103.53 15.1739 101.878 12.8453 99.1712 12.8453C97.7781 12.8453 96.7829 13.4623 96.0864 14.3778H96.0267V13.1439H92.9219V26.6974ZM98.2557 21.1447C96.8626 21.1447 96.0665 20.0102 96.0665 18.3583C96.0665 16.7064 96.7829 15.4526 98.196 15.4526C99.5892 15.4526 100.246 16.6069 100.246 18.3583C100.246 20.0898 99.4897 21.1447 98.2557 21.1447Z" fill="#0B0A2F"/>
<path d="M108.811 23.6524C111.478 23.6524 113.449 22.498 113.449 20.2689C113.449 17.6617 111.339 17.204 109.548 16.9054C108.254 16.6666 107.1 16.5671 107.1 15.8506C107.1 15.2137 107.717 14.9152 108.513 14.9152C109.408 14.9152 110.025 15.1938 110.145 16.1093H113.13C112.971 14.0992 111.419 12.8453 108.533 12.8453C106.125 12.8453 104.134 13.9599 104.134 16.1093C104.134 18.4976 106.025 18.9753 107.796 19.2738C109.15 19.5127 110.384 19.6122 110.384 20.5277C110.384 21.1845 109.767 21.5427 108.792 21.5427C107.717 21.5427 107.04 21.0451 106.921 20.0301H103.856C103.955 22.2791 105.826 23.6524 108.811 23.6524Z" fill="#0B0A2F"/>
<path fill-rule="evenodd" clip-rule="evenodd" d="M17.6161 33.2851C26.776 33.2851 34.2015 25.8596 34.2015 16.6998C34.2015 7.53997 26.776 0.114441 17.6161 0.114441C8.45627 0.114441 1.03076 7.53997 1.03076 16.6998C1.03076 25.8596 8.45627 33.2851 17.6161 33.2851ZM22.7902 7.8406C23.042 6.94599 22.1739 6.41699 21.381 6.98186L10.3129 14.8668C9.45299 15.4793 9.58825 16.6998 10.516 16.6998H13.4306V16.6772H19.1109L14.4825 18.3103L12.4421 25.559C12.1902 26.4536 13.0583 26.9826 13.8513 26.4177L24.9194 18.5329C25.7793 17.9203 25.644 16.6998 24.7163 16.6998H20.2964L22.7902 7.8406Z" fill="#0B0A2F"/>
</g>
<defs>
<clipPath id="clip0_8_97">
<rect width="140.976" height="34" fill="white" transform="translate(0.463379)"/>
</clipPath>
</defs>
</svg>
