<svg width="31" height="30" viewBox="0 0 31 30" fill="none" xmlns="http://www.w3.org/2000/svg">
<path opacity="0.4" d="M21.2961 23.725H9.37105C8.84605 23.725 8.37105 23.3875 8.19605 22.9L2.99605 8.33755C2.58355 7.17505 3.90855 6.18755 4.89605 6.90005L9.89605 10.475C10.5586 10.95 11.5086 10.6625 11.7961 9.90005L14.1586 3.60005C14.5586 2.51255 16.0961 2.51255 16.4961 3.60005L18.8586 9.90005C19.1461 10.675 20.0836 10.95 20.7586 10.475L25.7586 6.90005C26.7586 6.18755 28.0711 7.18755 27.6586 8.33755L22.4586 22.9C22.2961 23.3875 21.8211 23.725 21.2961 23.725Z" fill="white"/>
<path d="M21.5835 27.5H9.0835C8.571 27.5 8.146 27.075 8.146 26.5625C8.146 26.05 8.571 25.625 9.0835 25.625H21.5835C22.096 25.625 22.521 26.05 22.521 26.5625C22.521 27.075 22.096 27.5 21.5835 27.5Z" fill="white"/>
<path d="M18.4585 18.4375H12.2085C11.696 18.4375 11.271 18.0125 11.271 17.5C11.271 16.9875 11.696 16.5625 12.2085 16.5625H18.4585C18.971 16.5625 19.396 16.9875 19.396 17.5C19.396 18.0125 18.971 18.4375 18.4585 18.4375Z" fill="white"/>
</svg>
