<svg width="54" height="54" viewBox="0 0 54 54" fill="none" xmlns="http://www.w3.org/2000/svg">
<rect width="54" height="54" rx="27" fill="#FFF5FF"/>
<path d="M36.1626 19.1L28.3251 14.875C27.5001 14.425 26.5001 14.425 25.6751 14.875L17.8376 19.1C17.2626 19.4125 16.9126 20.0125 16.9126 20.7C16.9126 21.375 17.2626 21.9875 17.8376 22.3L25.6751 26.525C26.0876 26.75 26.5501 26.8625 27.0001 26.8625C27.4501 26.8625 27.9126 26.75 28.3251 26.525L36.1626 22.3C36.7376 21.9875 37.0876 21.3875 37.0876 20.7C37.0876 20.0125 36.7376 19.4125 36.1626 19.1Z" fill="#F532F9"/>
<path opacity="0.4" d="M24.3875 27.9875L17.0875 24.3375C16.525 24.0625 15.875 24.0875 15.35 24.4125C14.8125 24.75 14.5 25.3125 14.5 25.9375V32.825C14.5 34.0125 15.1625 35.0875 16.225 35.625L23.5125 39.275C23.7625 39.4 24.0375 39.4625 24.3125 39.4625C24.6375 39.4625 24.9625 39.375 25.25 39.2C25.7875 38.875 26.1 38.3 26.1 37.675V30.7875C26.1125 29.5875 25.45 28.5125 24.3875 27.9875Z" fill="#F532F9"/>
<path opacity="0.4" d="M38.6499 24.4125C38.1124 24.0875 37.4624 24.05 36.9124 24.3375L29.6249 27.9875C28.5624 28.525 27.8999 29.5875 27.8999 30.7875V37.675C27.8999 38.3 28.2124 38.875 28.7499 39.2C29.0374 39.375 29.3624 39.4625 29.6874 39.4625C29.9624 39.4625 30.2374 39.4 30.4874 39.275L37.7749 35.625C38.8374 35.0875 39.4999 34.025 39.4999 32.825V25.9375C39.4999 25.3125 39.1874 24.75 38.6499 24.4125Z" fill="#F532F9"/>
</svg>
