<svg width="19" height="18" viewBox="0 0 19 18" fill="none" xmlns="http://www.w3.org/2000/svg">
<path d="M9.61255 12.375V13.95" stroke="#4232F9" stroke-width="1.5" stroke-linecap="round" stroke-linejoin="round"/>
<path d="M5.86255 16.5H13.3625V15.75C13.3625 14.925 12.6875 14.25 11.8625 14.25H7.36255C6.53755 14.25 5.86255 14.925 5.86255 15.75V16.5V16.5Z" stroke="#4232F9" stroke-width="1.5" stroke-miterlimit="10"/>
<path d="M5.11255 16.5H14.1125" stroke="#4232F9" stroke-width="1.5" stroke-linecap="round" stroke-linejoin="round"/>
<path d="M9.5 12C6.5975 12 4.25 9.6525 4.25 6.75V4.5C4.25 2.8425 5.5925 1.5 7.25 1.5H11.75C13.4075 1.5 14.75 2.8425 14.75 4.5V6.75C14.75 9.6525 12.4025 12 9.5 12Z" stroke="#4232F9" stroke-width="1.5" stroke-linecap="round" stroke-linejoin="round"/>
<path d="M4.60253 8.73751C4.04003 8.55751 3.54503 8.22751 3.15503 7.83751C2.48003 7.08751 2.03003 6.18751 2.03003 5.13751C2.03003 4.08751 2.85503 3.26251 3.90503 3.26251H4.39253C4.24253 3.60751 4.16753 3.99001 4.16753 4.38751V6.63751C4.16753 7.38751 4.32503 8.09251 4.60253 8.73751Z" stroke="#4232F9" stroke-width="1.5" stroke-linecap="round" stroke-linejoin="round"/>
<path d="M14.3975 8.73751C14.96 8.55751 15.455 8.22751 15.845 7.83751C16.52 7.08751 16.97 6.18751 16.97 5.13751C16.97 4.08751 16.145 3.26251 15.095 3.26251H14.6075C14.7575 3.60751 14.8325 3.99001 14.8325 4.38751V6.63751C14.8325 7.38751 14.675 8.09251 14.3975 8.73751Z" stroke="#4232F9" stroke-width="1.5" stroke-linecap="round" stroke-linejoin="round"/>
</svg>
