<svg width="30" height="30" viewBox="0 0 30 30" fill="none" xmlns="http://www.w3.org/2000/svg">
<path opacity="0.4" d="M26.2249 3.77495C25.1374 2.68745 23.5999 2.26245 22.1124 2.63745L9.86245 5.69995C7.79995 6.21245 6.21245 7.81245 5.69995 9.86245L2.63745 22.1249C2.26245 23.6124 2.68745 25.1499 3.77495 26.2374C4.59995 27.0499 5.68745 27.4999 6.81245 27.4999C7.16245 27.4999 7.52495 27.4624 7.87495 27.3624L20.1374 24.2999C22.1874 23.7874 23.7874 22.1999 24.2999 20.1374L27.3624 7.87495C27.7374 6.38745 27.3124 4.84995 26.2249 3.77495Z" fill="#129838"/>
<path d="M15 19.85C17.6786 19.85 19.85 17.6786 19.85 15C19.85 12.3214 17.6786 10.15 15 10.15C12.3214 10.15 10.15 12.3214 10.15 15C10.15 17.6786 12.3214 19.85 15 19.85Z" fill="#129838"/>
</svg>
