<svg width="54" height="54" viewBox="0 0 54 54" fill="none" xmlns="http://www.w3.org/2000/svg">
<rect width="54" height="54" rx="27" fill="#F0FAF3"/>
<path opacity="0.4" d="M32.9626 35.725H21.0376C20.5126 35.725 20.0376 35.3875 19.8626 34.9L14.6626 20.3375C14.2501 19.175 15.5751 18.1875 16.5626 18.9L21.5626 22.475C22.2251 22.95 23.1751 22.6625 23.4626 21.9L25.8251 15.6C26.2251 14.5125 27.7626 14.5125 28.1626 15.6L30.5251 21.9C30.8126 22.675 31.7501 22.95 32.4251 22.475L37.4251 18.9C38.4251 18.1875 39.7376 19.1875 39.3251 20.3375L34.1251 34.9C33.9626 35.3875 33.4876 35.725 32.9626 35.725Z" fill="#129838"/>
<path d="M33.25 39.5H20.75C20.2375 39.5 19.8125 39.075 19.8125 38.5625C19.8125 38.05 20.2375 37.625 20.75 37.625H33.25C33.7625 37.625 34.1875 38.05 34.1875 38.5625C34.1875 39.075 33.7625 39.5 33.25 39.5Z" fill="#129838"/>
<path d="M30.125 30.4375H23.875C23.3625 30.4375 22.9375 30.0125 22.9375 29.5C22.9375 28.9875 23.3625 28.5625 23.875 28.5625H30.125C30.6375 28.5625 31.0625 28.9875 31.0625 29.5C31.0625 30.0125 30.6375 30.4375 30.125 30.4375Z" fill="#129838"/>
</svg>
