<svg width="30" height="30" viewBox="0 0 30 30" fill="none" xmlns="http://www.w3.org/2000/svg">
<path opacity="0.4" d="M13.1124 2.78745L6.87495 5.12496C5.43745 5.66246 4.26245 7.36245 4.26245 8.89995V18.1875C4.26245 19.6625 5.23746 21.6 6.42496 22.4875L11.7999 26.5C13.5624 27.825 16.4624 27.825 18.2249 26.5L23.6 22.4875C24.7875 21.6 25.7624 19.6625 25.7624 18.1875V8.89995C25.7624 7.36245 24.5874 5.66246 23.1499 5.12496L16.9124 2.78745C15.8499 2.39995 14.1499 2.39995 13.1124 2.78745Z" fill="#129838"/>
<path d="M14.875 14.125C14.9 14.125 14.925 14.125 14.95 14.125H14.975H15C16.4375 14.075 17.5625 12.9125 17.575 11.4625C17.575 9.98747 16.375 8.78748 14.9 8.78748C13.425 8.78748 12.225 9.98747 12.225 11.4625C12.25 12.9 13.375 14.075 14.875 14.125Z" fill="#129838"/>
<path d="M17.7374 16.7625C16.2249 15.7625 13.7749 15.7625 12.2499 16.7625C11.5499 17.2375 11.1375 17.9124 11.1375 18.6124C11.1375 19.3249 11.5374 19.9749 12.2499 20.4499C13.0124 20.9499 13.9999 21.2124 14.9874 21.2124C15.9749 21.2124 16.9749 20.9624 17.7249 20.4499C18.4249 19.9749 18.8375 19.3 18.8375 18.6C18.85 17.8875 18.4499 17.2375 17.7374 16.7625Z" fill="#129838"/>
</svg>
