<svg width="54" height="54" viewBox="0 0 54 54" fill="none" xmlns="http://www.w3.org/2000/svg">
<rect width="54" height="54" rx="27" fill="#ECE7FF"/>
<path opacity="0.4" d="M32.2375 14.5H21.7625C17.2125 14.5 14.5 17.2125 14.5 21.7625V32.225C14.5 36.7875 17.2125 39.5 21.7625 39.5H32.225C36.775 39.5 39.4875 36.7875 39.4875 32.2375V21.7625C39.5 17.2125 36.7875 14.5 32.2375 14.5Z" fill="#5A32F9"/>
<path d="M20.6001 35.625C20.0876 35.625 19.6626 35.2 19.6626 34.6875V32.1C19.6626 31.5875 20.0876 31.1625 20.6001 31.1625C21.1126 31.1625 21.5376 31.5875 21.5376 32.1V34.6875C21.5376 35.2125 21.1126 35.625 20.6001 35.625Z" fill="#5A32F9"/>
<path d="M27 35.625C26.4875 35.625 26.0625 35.2 26.0625 34.6875V29.5C26.0625 28.9875 26.4875 28.5625 27 28.5625C27.5125 28.5625 27.9375 28.9875 27.9375 29.5V34.6875C27.9375 35.2125 27.5125 35.625 27 35.625Z" fill="#5A32F9"/>
<path d="M33.3999 35.625C32.8874 35.625 32.4624 35.2 32.4624 34.6875V26.9125C32.4624 26.4 32.8874 25.975 33.3999 25.975C33.9124 25.975 34.3374 26.4 34.3374 26.9125V34.6875C34.3374 35.2125 33.9249 35.625 33.3999 35.625Z" fill="#5A32F9"/>
<path d="M34.3375 19.275C34.3375 19.2125 34.3125 19.1375 34.3 19.075C34.2875 19.025 34.275 18.9625 34.2625 18.9125C34.2375 18.8625 34.2 18.825 34.175 18.775C34.1375 18.725 34.1 18.6625 34.05 18.625C34.0375 18.6125 34.0375 18.6 34.025 18.6C33.9875 18.575 33.95 18.5625 33.9125 18.5375C33.8625 18.5 33.8 18.4625 33.7375 18.4375C33.675 18.4125 33.6125 18.4125 33.55 18.4C33.5 18.3875 33.4625 18.375 33.4125 18.375H29.75C29.2375 18.375 28.8125 18.8 28.8125 19.3125C28.8125 19.825 29.2375 20.25 29.75 20.25H31.3125C28.3375 23.375 24.5875 25.575 20.375 26.6375C19.875 26.7625 19.5625 27.275 19.6875 27.775C19.7875 28.2 20.175 28.4875 20.6 28.4875C20.675 28.4875 20.75 28.475 20.825 28.4625C25.2875 27.35 29.275 25.0375 32.4625 21.7625V22.975C32.4625 23.4875 32.8875 23.9125 33.4 23.9125C33.9125 23.9125 34.3375 23.4875 34.3375 22.975V19.3125C34.3375 19.3 34.3375 19.2875 34.3375 19.275Z" fill="#5A32F9"/>
</svg>
