<svg width="31" height="30" viewBox="0 0 31 30" fill="none" xmlns="http://www.w3.org/2000/svg">
<path opacity="0.4" d="M13.4668 18.425C13.0543 18.0125 12.5043 17.775 11.9168 17.775H5.56683C4.80433 17.775 4.10433 18.1625 3.70433 18.8125C3.30433 19.45 3.26683 20.2125 3.59183 20.8875C5.12933 24.0375 7.90433 26.5125 11.2043 27.675C11.4293 27.75 11.6793 27.8 11.9168 27.8C12.3543 27.8 12.7918 27.6625 13.1668 27.4C13.7543 26.9875 14.1043 26.3125 14.1043 25.6L14.1168 19.975C14.1043 19.3875 13.8793 18.8375 13.4668 18.425Z" fill="#129838"/>
<path d="M28.7667 12C27.3667 5.85 21.9792 1.5625 15.6667 1.5625C9.35416 1.5625 3.96666 5.85 2.56666 12C2.41666 12.65 2.56666 13.3125 2.99166 13.8375C3.41666 14.3625 4.04166 14.6625 4.71666 14.6625H26.6292C27.3042 14.6625 27.9292 14.3625 28.3542 13.8375C28.7667 13.3125 28.9167 12.6375 28.7667 12Z" fill="#129838"/>
<path opacity="0.4" d="M27.6167 18.875C27.2167 18.225 26.5167 17.825 25.7417 17.825L19.4167 17.8125C18.8292 17.8125 18.2792 18.0375 17.8667 18.45C17.4542 18.8625 17.2292 19.4125 17.2292 20L17.2417 25.6C17.2417 26.3125 17.5917 26.9875 18.1792 27.4C18.5542 27.6625 18.9917 27.8 19.4292 27.8C19.6667 27.8 19.9042 27.7625 20.1292 27.675C23.4042 26.525 26.1792 24.0625 27.7167 20.95C28.0417 20.2875 28.0042 19.5125 27.6167 18.875Z" fill="#129838"/>
</svg>
